<svg width="48" height="47" viewBox="0 0 48 47" fill="none" xmlns="http://www.w3.org/2000/svg">
<g id="Iconly/Bold/Search">
<g id="Search">
<path id="Search_2" fill-rule="evenodd" clip-rule="evenodd" d="M4.8103 21.0796C4.8103 11.8539 12.2096 4.375 21.337 4.375C25.7202 4.375 29.9239 6.13494 33.0232 9.26765C36.1226 12.4004 37.8638 16.6492 37.8638 21.0796C37.8638 30.3052 30.4645 37.7841 21.337 37.7841C12.2096 37.7841 4.8103 30.3052 4.8103 21.0796ZM37.5903 34.5362L42.5125 38.5094H42.5979C43.5937 39.5159 43.5937 41.1478 42.5979 42.1543C41.6021 43.1608 39.9876 43.1608 38.9918 42.1543L34.9071 37.4729C34.5209 37.0839 34.3039 36.5556 34.3039 36.0046C34.3039 35.4535 34.5209 34.9252 34.9071 34.5362C35.6518 33.7965 36.8456 33.7965 37.5903 34.5362Z" fill="#FF844B"/>
</g>
</g>
</svg>
