<svg width="48" height="47" viewBox="0 0 48 47" fill="none" xmlns="http://www.w3.org/2000/svg">
<g id="Iconly/Bold/Shield Done">
<g id="Shield Done">
<path id="Shield Done_2" fill-rule="evenodd" clip-rule="evenodd" d="M23.5536 42.2431C23.767 42.3546 24.0055 42.4113 24.2441 42.4094C24.4827 42.4075 24.7193 42.3489 24.9347 42.2356L31.809 38.5608C33.7584 37.5216 35.2849 36.3597 36.4759 35.0069C39.0654 32.0595 40.4795 28.2978 40.4543 24.419L40.3728 11.6243C40.365 10.1506 39.3971 8.83556 37.9656 8.35756L25.1771 4.06683C24.4071 3.8061 23.5633 3.81177 22.8068 4.08006L10.0668 8.52382C8.64306 9.02072 7.69261 10.3452 7.70036 11.8207L7.78183 24.606C7.80705 28.4905 9.26959 32.2352 11.9018 35.1524C13.1044 36.4863 14.6445 37.6312 16.6153 38.6534L23.5536 42.2431ZM21.7337 27.2057C22.0208 27.4816 22.3932 27.6176 22.7657 27.6138C23.1381 27.6119 23.5086 27.4721 23.7918 27.1925L31.3042 19.7862C31.8687 19.2289 31.8629 18.3333 31.2926 17.7835C30.7204 17.2337 29.799 17.2375 29.2346 17.7949L22.7443 24.1922L20.0869 21.6378C19.5147 21.088 18.5953 21.0937 18.0289 21.651C17.4644 22.2084 17.4703 23.1039 18.0425 23.6537L21.7337 27.2057Z" fill="#FF844B"/>
</g>
</g>
</svg>
