<svg width="48" height="47" viewBox="0 0 48 47" fill="none" xmlns="http://www.w3.org/2000/svg">
<g id="Iconly/Bold/Tick Square">
<g id="Tick Square">
<path id="Tick Square_2" fill-rule="evenodd" clip-rule="evenodd" d="M15.735 3.875H32.4396C38.9712 3.875 43.3449 8.4606 43.3449 15.2812V31.0245C43.3449 37.8239 38.9712 42.4095 32.4396 42.4095H15.735C9.20336 42.4095 4.81042 37.8239 4.81042 31.0245V15.2812C4.81042 8.4606 9.20336 3.875 15.735 3.875ZM22.9794 28.9027L32.1313 19.7508C32.7864 19.0957 32.7864 18.036 32.1313 17.3617C31.4763 16.7066 30.3973 16.7066 29.7422 17.3617L21.7848 25.319L18.4131 21.9473C17.758 21.2922 16.679 21.2922 16.0239 21.9473C15.3688 22.6024 15.3688 23.6621 16.0239 24.3364L20.6095 28.9027C20.9371 29.2303 21.361 29.3844 21.7848 29.3844C22.228 29.3844 22.6519 29.2303 22.9794 28.9027Z" fill="#FF844B"/>
</g>
</g>
</svg>
