<svg width="48" height="47" viewBox="0 0 48 47" fill="none" xmlns="http://www.w3.org/2000/svg">
<g id="Iconly/Bold/Time Circle">
<g id="Time Circle">
<path id="Time Circle_2" fill-rule="evenodd" clip-rule="evenodd" d="M24.0775 42.4101C13.442 42.4101 4.8103 33.7976 4.8103 23.1429C4.8103 12.5073 13.442 3.87561 24.0775 3.87561C34.7323 3.87561 43.3448 12.5073 43.3448 23.1429C43.3448 33.7976 34.7323 42.4101 24.0775 42.4101ZM30.2238 30.2907C30.455 30.4255 30.7055 30.5026 30.9752 30.5026C31.4569 30.5026 31.9386 30.2521 32.2083 29.7897C32.613 29.1154 32.401 28.2291 31.7074 27.8052L24.8483 23.7205V14.8191C24.8483 14.0099 24.1932 13.374 23.4032 13.374C22.6133 13.374 21.9582 14.0099 21.9582 14.8191V24.549C21.9582 25.05 22.2279 25.5124 22.6711 25.7821L30.2238 30.2907Z" fill="#FF844B"/>
</g>
</g>
</svg>
