<svg width="48" height="47" viewBox="0 0 48 47" fill="none" xmlns="http://www.w3.org/2000/svg">
<g id="Iconly/Bold/Wallet">
<g id="Wallet">
<path id="Wallet_2" fill-rule="evenodd" clip-rule="evenodd" d="M35.1926 16.671H43.3448C43.3448 10.1255 39.4228 6.30176 32.7778 6.30176H15.3773C8.73226 6.30176 4.8103 10.1255 4.8103 16.5875V30.697C4.8103 37.159 8.73226 40.9828 15.3773 40.9828H32.7778C39.4228 40.9828 43.3448 37.159 43.3448 30.697V30.0959H35.1926C31.4091 30.0959 28.342 27.1056 28.342 23.4169C28.342 19.7281 31.4091 16.7378 35.1926 16.7378V16.671ZM35.1926 19.5429H41.9062C42.7007 19.5429 43.3448 20.1709 43.3448 20.9455V25.8213C43.3356 26.5921 42.6969 27.2148 41.9062 27.2239H35.3468C33.4314 27.249 31.7565 25.9704 31.322 24.1515C31.1045 23.0224 31.4099 21.8572 32.1565 20.9683C32.903 20.0794 34.0143 19.5577 35.1926 19.5429ZM35.4837 24.6691H36.1174C36.9309 24.6691 37.5903 24.0262 37.5903 23.2331C37.5903 22.44 36.9309 21.7971 36.1174 21.7971H35.4837C35.0947 21.7927 34.72 21.9402 34.4433 22.2069C34.1666 22.4735 34.0108 22.8371 34.0109 23.2164C34.0108 24.0122 34.6675 24.66 35.4837 24.6691ZM13.9387 16.6711H24.814C25.6274 16.6711 26.2869 16.0282 26.2869 15.2351C26.2869 14.4421 25.6274 13.7991 24.814 13.7991H13.9387C13.1319 13.7991 12.4752 14.4319 12.4658 15.2184C12.4658 16.0143 13.1225 16.662 13.9387 16.6711Z" fill="#FF844B"/>
</g>
</g>
</svg>
