<svg width="48" height="47" viewBox="0 0 48 47" fill="none" xmlns="http://www.w3.org/2000/svg">
<g id="Iconly/Bold/Work">
<g id="Work">
<path id="Work_2" fill-rule="evenodd" clip-rule="evenodd" d="M21.5812 7.30209C20.2897 7.30209 19.1909 8.1996 18.8825 9.40928H29.2534C28.945 8.1996 27.8462 7.30209 26.5546 7.30209H21.5812ZM32.1835 9.40885H36.0003C40.0484 9.40885 43.3448 12.7452 43.3448 16.8425C43.3448 16.8425 43.2291 18.5771 43.1906 20.9925C43.1867 21.1838 43.0942 21.3711 42.9419 21.4842C42.0147 22.1691 41.1665 22.7349 41.0894 22.7739C37.8894 24.9201 34.1709 26.4303 30.2095 27.1814C29.9512 27.2322 29.6968 27.0975 29.5657 26.8673C28.4553 24.9435 26.3811 23.6909 24.0679 23.6909C21.7701 23.6909 19.6766 24.9299 18.5335 26.8556C18.4005 27.0819 18.1499 27.2127 17.8935 27.1639C13.9649 26.4108 10.2464 24.9026 7.0657 22.7934L5.21512 21.5057C5.0609 21.4081 4.96452 21.2325 4.96452 21.0374C4.90669 20.0424 4.8103 16.8425 4.8103 16.8425C4.8103 12.7452 8.10665 9.40885 12.1548 9.40885H15.9523C16.3186 6.57975 18.6897 4.375 21.5812 4.375H26.5546C29.4462 4.375 31.8172 6.57975 32.1835 9.40885ZM42.6894 25.2128L42.6123 25.2518C38.7184 27.8663 34.0341 29.6028 29.1185 30.3247C28.4245 30.4223 27.7305 29.9735 27.5378 29.2711C27.1137 27.6712 25.745 26.6176 24.1065 26.6176H24.0872H24.0487C22.4101 26.6176 21.0415 27.6712 20.6174 29.2711C20.4246 29.9735 19.7306 30.4223 19.0367 30.3247C14.1211 29.6028 9.43678 27.8663 5.54285 25.2518C5.52358 25.2323 5.33081 25.1152 5.17659 25.2128C5.0031 25.3104 5.0031 25.5445 5.0031 25.5445L5.13804 35.4951C5.13804 39.5924 8.41511 42.9093 12.4633 42.9093H35.6726C39.7208 42.9093 42.9978 39.5924 42.9978 35.4951L43.152 25.5445C43.152 25.5445 43.152 25.3104 42.9785 25.2128C42.8822 25.1543 42.7665 25.1738 42.6894 25.2128ZM25.5137 33.3879C25.5137 34.2074 24.8775 34.8512 24.0679 34.8512C23.2776 34.8512 22.6221 34.2074 22.6221 33.3879V30.871C22.6221 30.071 23.2776 29.4076 24.0679 29.4076C24.8775 29.4076 25.5137 30.071 25.5137 30.871V33.3879Z" fill="#FF844B"/>
</g>
</g>
</svg>
